<?xml version="1.0" standalone="no"?>
<!DOCTYPE svg PUBLIC "-//W3C//DTD SVG 20010904//EN"
 "http://www.w3.org/TR/2001/REC-SVG-20010904/DTD/svg10.dtd">
<svg version="1.0" xmlns="http://www.w3.org/2000/svg"
 width="1024.000000pt" height="1792.000000pt" viewBox="0 0 1024.000000 1792.000000"
 preserveAspectRatio="xMidYMid meet">

<g transform="translate(0.000000,1792.000000) scale(0.100000,-0.100000)"
fill="#000000" stroke="none">
<path d="M5876 13013 c-7 -127 -12 -163 -22 -163 -8 0 -14 -8 -14 -19 0 -10
-7 -24 -16 -31 -28 -24 -34 -46 -23 -79 6 -17 20 -36 31 -42 20 -11 20 -11 -2
-34 -12 -13 -62 -45 -112 -71 -68 -36 -102 -62 -141 -107 -29 -33 -76 -73
-104 -89 -49 -28 -70 -58 -41 -58 7 0 -4 -12 -25 -27 -26 -18 -34 -30 -27 -37
5 -5 10 -17 10 -27 0 -9 9 -28 20 -42 18 -23 20 -40 20 -211 l0 -186 -62 -28
c-96 -44 -95 -43 -99 -222 l-4 -155 73 -72 c79 -80 98 -113 81 -144 -7 -15 -7
-24 1 -34 7 -8 9 -26 5 -44 -4 -17 -1 -37 6 -49 13 -20 9 -307 -21 -1562 -6
-223 -14 -603 -20 -845 -18 -792 -30 -1249 -36 -1312 -5 -57 -7 -62 -24 -53
-10 6 -22 10 -27 10 -4 -1 4 -8 20 -16 24 -13 27 -20 27 -69 0 -57 -11 -70
-30 -35 -6 11 -15 20 -21 20 -6 0 1 -14 15 -31 14 -17 27 -37 28 -45 0 -8 1
-20 2 -26 3 -43 -368 22 -615 108 -302 105 -526 254 -911 607 -124 114 -372
384 -438 478 -70 99 -276 371 -355 469 -33 41 -89 114 -123 163 -35 48 -65 87
-68 87 -2 0 26 -46 64 -102 38 -57 88 -139 111 -183 40 -75 90 -149 261 -385
38 -52 69 -101 70 -107 0 -28 -40 -11 -73 30 -40 49 -145 218 -206 332 -24 44
-46 84 -49 89 -2 5 -9 2 -13 -7 -6 -10 14 -63 65 -170 92 -191 113 -255 91
-276 -8 -8 -16 -13 -18 -10 -1 2 -34 72 -72 154 -38 83 -83 179 -101 215 l-33
65 24 18 c31 23 32 53 4 69 -12 7 -39 51 -61 98 -234 496 -387 802 -400 797
-18 -6 -17 -8 82 -227 48 -107 107 -240 130 -295 24 -55 76 -175 117 -268 40
-92 73 -169 73 -172 0 -2 -10 -5 -22 -7 -27 -4 -35 -32 -17 -65 11 -20 11 -87
0 -371 -22 -580 -23 -587 -59 -660 -18 -34 -32 -65 -32 -68 0 -14 -128 -257
-167 -319 -65 -100 -166 -196 -249 -236 -60 -29 -82 -34 -164 -37 -69 -3 -111
0 -150 12 -30 9 -50 12 -45 7 15 -15 124 -41 172 -41 168 0 328 103 448 289
42 64 73 125 187 361 l27 55 3 -95 c5 -173 7 -166 -82 -336 -107 -204 -185
-326 -269 -417 l-26 -28 -6 23 c-6 19 -7 17 -8 -11 -1 -28 -15 -48 -88 -124
-104 -106 -262 -247 -279 -247 -22 0 -163 170 -200 242 -14 27 -13 28 27 53
31 20 38 29 30 39 -13 16 21 66 45 66 15 0 19 12 7 23 -4 4 -18 -3 -32 -17
-14 -13 -49 -39 -77 -59 l-51 -35 -31 55 c-38 65 -39 76 -9 69 21 -6 21 -6 2
5 -12 5 -36 32 -54 59 l-34 50 -38 -22 c-22 -12 -39 -27 -39 -33 0 -6 52 -98
116 -205 153 -257 404 -687 404 -694 0 -3 -21 -15 -48 -26 -90 -40 -132 -101
-117 -170 13 -58 85 -101 205 -124 62 -12 65 -13 66 -43 l2 -30 -67 13 c-116
22 -161 34 -219 57 -31 13 -96 36 -145 52 -86 28 -104 44 -70 64 17 10 17 10
0 11 -9 0 -22 -11 -28 -24 -10 -22 -3 -36 76 -147 48 -67 89 -128 91 -134 3
-6 -5 -24 -17 -39 -31 -39 -123 -110 -127 -98 -2 6 7 30 19 53 l22 43 -51 -54
c-47 -50 -51 -53 -52 -30 0 14 11 49 25 79 14 30 24 56 22 58 -2 2 -25 -33
-51 -77 -25 -44 -49 -80 -52 -80 -3 0 -2 17 1 38 l5 37 -24 -50 -24 -50 -3 40
-2 40 -4 -34 c-3 -19 -11 -44 -19 -55 -14 -20 -14 -20 -14 2 0 12 -4 22 -10
22 -5 0 -10 -7 -10 -15 0 -8 -4 -15 -10 -15 -5 0 -10 7 -10 15 0 8 -4 15 -10
15 -5 0 -10 -7 -10 -16 0 -23 -24 -11 -30 15 -5 21 -7 19 -20 -15 l-14 -39 -6
30 -7 30 -11 -27 c-15 -36 -32 -45 -33 -16 0 23 0 23 -11 -2 -9 -23 -11 -24
-17 -6 -7 19 -8 19 -15 1 -6 -16 -9 -17 -16 -5 -8 12 -10 9 -10 -10 -1 -24 -1
-24 -15 -6 -12 16 -15 17 -20 4 -4 -10 -15 -13 -31 -10 -13 2 -24 0 -24 -6 0
-8 -108 -23 -265 -35 -23 -2 -8 -5 35 -7 41 -1 129 -6 195 -9 l120 -6 -205
-10 -205 -9 195 -7 c459 -17 921 -29 1140 -31 l235 -1 -250 -8 c-350 -11 -354
-15 -20 -20 l290 -3 -210 -6 -210 -6 204 -2 c112 -1 202 -4 200 -6 -3 -3 -811
-31 -1134 -39 -49 -1 166 -6 480 -11 314 -4 838 -14 1165 -20 l595 -11 -870
-9 c-478 -4 -943 -8 -1032 -9 -90 -1 -163 -5 -163 -9 0 -4 56 -8 125 -8 68 0
326 -7 572 -16 323 -12 578 -15 913 -10 477 6 1298 29 1610 46 96 5 268 9 382
9 126 1 209 5 213 11 4 7 -89 10 -272 11 -153 1 -309 5 -348 9 -66 7 -64 8 30
5 55 -1 163 1 240 5 l140 7 -179 1 c-99 1 -177 5 -173 8 3 3 161 5 351 5 l345
-1 4 47 3 48 2 -47 c2 -52 5 -54 42 -33 25 14 25 14 2 15 -12 0 -25 6 -28 13
-9 25 -20 312 -13 363 4 29 27 97 52 151 62 136 113 289 137 411 28 146 29
143 -22 136 -24 -3 -49 -7 -55 -10 -7 -2 -13 1 -13 6 0 10 63 30 98 30 18 0
22 6 22 30 0 19 -6 33 -16 37 -16 6 -26 1 -82 -35 -23 -15 -24 -15 -20 13 3
27 7 30 68 41 100 19 94 23 86 -50 -5 -55 -44 -252 -62 -312 -4 -16 0 -23 18
-28 15 -4 19 -9 12 -13 -7 -5 11 -9 40 -10 28 -1 93 -13 144 -26 50 -12 92
-21 92 -18 0 2 -6 12 -14 20 -8 9 -28 41 -46 71 l-32 55 29 -28 c17 -15 40
-49 52 -76 l23 -48 106 -21 c59 -12 161 -33 227 -47 323 -66 473 -89 436 -66
-7 5 -27 31 -43 57 -16 27 -27 40 -23 29 4 -11 9 -29 12 -40 8 -38 -17 11 -32
62 -19 61 -19 66 3 55 9 -5 89 -22 177 -37 88 -14 182 -34 209 -43 39 -14 50
-14 54 -4 3 10 6 10 16 -2 15 -20 80 -30 73 -11 -4 10 6 12 44 9 28 -1 49 1
49 7 0 6 9 7 20 4 22 -7 26 4 10 23 -5 7 0 3 13 -8 19 -18 20 -22 7 -30 -12
-8 -12 -12 -3 -18 7 -4 16 -23 19 -41 7 -32 6 -33 -15 -22 -33 18 -25 0 19
-42 68 -63 51 -72 -57 -31 -158 61 -388 144 -397 144 -25 0 27 -32 111 -69
136 -59 206 -96 227 -120 23 -25 21 -25 -33 -6 -24 8 -41 10 -41 4 0 -5 7 -12
16 -16 31 -12 -8 -21 -70 -17 l-61 4 35 -21 35 -20 -49 5 c-27 3 -57 1 -68 -5
-23 -13 -180 -15 -199 -4 -7 5 -26 10 -41 12 -16 2 -68 14 -116 27 -127 36
-166 42 -160 25 2 -7 40 -24 84 -37 l79 -24 -50 -14 c-27 -7 -95 -13 -149 -14
-55 0 -97 -2 -95 -4 11 -9 647 -33 1024 -38 110 -1 243 -5 295 -8 86 -5 91 -6
53 -14 -24 -5 -43 -12 -43 -17 0 -5 -6 -6 -13 -3 -8 3 -19 -5 -26 -18 -6 -13
-9 -15 -7 -5 8 25 -3 21 -14 -5 -7 -18 -9 -19 -9 -5 -1 20 -10 21 -31 6 -12
-9 -11 -10 5 -4 11 3 16 2 11 -2 -4 -4 -17 -9 -29 -9 -12 -1 -35 -4 -52 -8
-84 -19 -216 -36 -354 -45 -159 -12 -208 -21 -107 -21 31 0 166 -4 299 -9 225
-9 1944 -22 1867 -15 -91 9 -206 28 -216 35 -6 5 -14 6 -18 2 -4 -4 -11 -1
-16 7 -7 10 -10 11 -10 3 0 -26 -20 -12 -20 15 l-1 27 -14 -25 c-9 -15 -14
-19 -15 -10 0 13 -2 13 -9 1 -8 -12 -11 -9 -17 13 -6 24 -8 26 -16 12 -13 -23
-26 -20 -31 6 l-4 23 -2 -23 c-1 -28 -21 -20 -21 9 0 10 -4 19 -9 19 -4 0 -6
-12 -3 -28 4 -22 2 -25 -9 -14 -7 6 -21 12 -32 12 -10 0 -15 5 -12 10 4 6 11
7 17 4 6 -4 8 -3 5 3 -8 13 17 33 148 121 121 82 142 99 133 107 -7 7 -108
-42 -233 -115 -50 -29 -91 -47 -93 -41 -2 6 -12 1 -23 -11 l-18 -23 -2 35 c-2
29 -3 30 -6 9 -2 -15 -13 -35 -24 -45 -20 -18 -20 -17 -14 27 5 41 4 42 -6 14
-24 -62 -48 -73 -50 -22 -2 27 -2 28 -6 7 -6 -31 -23 -51 -23 -26 0 9 -5 14
-10 11 -6 -3 -13 2 -17 11 -6 16 -7 16 -14 -2 -6 -16 -8 -14 -8 9 -1 33 -21
27 -22 -6 0 -19 -2 -19 -11 6 l-10 27 -19 -22 -18 -23 -1 24 c0 20 -2 21 -15
11 -13 -11 -15 -8 -15 15 0 21 39 65 206 230 132 130 204 208 199 215 -5 8
-38 -18 -99 -77 -85 -84 -127 -123 -250 -234 l-49 -44 7 35 7 35 -25 -42 c-13
-23 -27 -51 -31 -63 -3 -11 -10 -20 -15 -20 -6 0 -6 10 0 25 11 30 0 33 -18 5
-7 -11 -19 -20 -27 -20 -13 0 -14 4 -5 21 14 26 7 35 -10 14 -7 -8 -17 -15
-23 -15 -7 0 -7 4 1 12 24 24 11 31 -14 7 l-27 -24 12 23 c7 13 10 26 7 29 -8
8 13 33 27 33 6 0 2 -7 -9 -15 -10 -8 -14 -15 -8 -15 15 0 36 25 27 33 -3 4 0
14 8 23 8 10 -9 1 -37 -19 -28 -20 -54 -37 -58 -37 -3 0 3 14 13 30 26 43 117
111 216 162 81 41 107 68 66 68 -10 0 -24 7 -31 15 -12 14 -16 13 -36 -6 -23
-21 -196 -111 -202 -104 -2 2 17 99 42 217 25 117 57 276 71 353 14 77 28 150
30 163 11 47 -11 19 -34 -44 -13 -36 -25 -64 -26 -62 -2 2 5 41 16 88 20 92
25 150 10 134 -5 -5 -16 -38 -24 -74 -15 -64 -15 -64 -23 -31 l-7 35 -15 -50
c-8 -27 -23 -94 -32 -149 -11 -63 -18 -86 -19 -62 -1 20 -3 37 -5 37 -5 0
-121 -65 -238 -133 -124 -72 -308 -171 -377 -203 -59 -27 -78 -28 -95 -1 -9
14 -6 22 19 42 37 30 28 32 -20 4 -53 -32 -52 -18 4 34 28 26 47 47 43 47 -4
0 -36 -21 -72 -45 -36 -25 -66 -40 -68 -35 -2 5 4 17 12 26 20 20 21 30 1 14
-29 -24 -14 5 23 44 39 43 11 24 -50 -33 -48 -44 -59 -34 -24 21 l27 43 -36
-39 c-42 -47 -43 -43 -10 27 l25 52 -27 -30 c-15 -16 -24 -23 -21 -15 35 97
208 673 208 691 -1 8 -12 -6 -25 -31 -28 -53 -30 -51 -10 13 l14 47 -24 -6
c-19 -5 -25 -2 -25 10 0 9 -6 16 -13 16 -9 0 -29 -51 -56 -137 -75 -246 -103
-327 -126 -373 -12 -25 -28 -63 -35 -85 -15 -48 -58 -135 -66 -135 -4 0 -4 28
-2 61 l4 62 -22 -27 c-13 -14 -30 -26 -39 -26 -18 0 -19 11 -2 30 6 8 -1 3
-18 -11 -16 -14 -39 -32 -49 -40 -18 -13 -19 -13 -6 11 7 14 29 48 48 75 l35
50 -54 -51 c-30 -27 -63 -57 -73 -65 -18 -13 -19 -13 -7 9 6 12 33 48 58 80
l46 57 -56 -52 c-31 -29 -59 -53 -63 -53 -11 0 29 45 126 139 47 46 78 79 70
74 -24 -15 -112 -84 -149 -117 -27 -24 -32 -27 -26 -11 4 11 7 27 7 35 0 36
144 532 206 710 22 63 39 116 38 117 -2 2 -31 -60 -67 -136 -35 -77 -65 -138
-66 -137 -3 2 31 144 142 590 24 96 27 139 5 80 -6 -16 -15 -38 -20 -49 -5
-11 -11 -29 -13 -40 -4 -18 -5 -17 -6 3 0 12 -8 25 -16 28 -11 5 -13 10 -5 19
6 7 12 43 15 81 2 38 10 94 18 124 7 30 10 66 7 79 -4 19 -10 5 -25 -57 -24
-100 -33 -91 -12 11 26 119 29 154 17 162 -6 4 -14 5 -16 2 -10 -10 -87 -373
-189 -900 -91 -465 -144 -650 -196 -677 -24 -13 -24 -6 0 28 11 15 23 38 27
52 5 19 -2 14 -27 -19 -19 -25 -41 -47 -49 -49 -12 -4 -12 -2 1 14 10 10 38
51 64 89 l47 70 -62 -62 c-62 -62 -89 -80 -71 -45 21 38 60 122 57 122 -2 0
-18 -22 -35 -49 -17 -26 -40 -56 -52 -66 -19 -18 -20 -18 -13 0 6 15 4 17 -11
11 -17 -6 -18 -5 -4 11 21 25 70 115 59 108 -6 -3 -21 -26 -36 -51 -30 -51
-37 -55 -28 -16 l7 27 -22 -25 c-30 -34 36 92 133 255 l18 30 -23 -30 c-37
-48 -106 -113 -140 -130 -51 -27 -44 -10 13 33 29 21 60 47 68 58 8 10 -3 3
-25 -15 -22 -18 -57 -39 -77 -46 l-37 -12 41 56 c23 31 46 63 52 71 5 8 -11
-5 -38 -30 l-47 -45 27 50 27 50 -31 -35 c-78 -88 5 65 138 255 l42 60 -38
-40 c-110 -118 -207 -215 -211 -211 -3 2 0 13 6 24 17 32 13 37 -10 16 l-22
-19 18 34 c16 32 16 34 -4 54 l-20 20 -18 -31 c-26 -45 -44 -44 -22 1 10 21
10 21 -5 3 -9 -11 -16 -16 -16 -11 0 5 -7 0 -15 -11 -13 -17 -14 -16 -11 23 2
24 0 46 -5 49 -15 9 -10 46 8 66 9 11 11 18 5 18 -7 0 -12 14 -12 30 0 17 5
30 10 30 6 0 10 5 10 11 0 5 -4 7 -10 4 -14 -9 -13 18 2 33 8 8 8 15 -1 26 -9
10 -14 88 -17 263 -3 136 -9 320 -13 408 -5 103 -6 31 -3 -206 5 -355 5 -367
-14 -372 -14 -3 -15 -5 -3 -6 29 -2 36 -184 7 -218 -7 -9 -7 -13 1 -13 7 0 11
-25 11 -70 0 -43 -4 -70 -11 -70 -5 0 -8 4 -4 10 3 5 -3 18 -14 29 -22 22 -19
51 5 51 10 0 11 6 5 23 -5 12 -16 21 -24 19 -25 -4 -29 15 -6 31 13 10 16 16
8 19 -7 2 -2 14 15 32 31 34 30 32 10 40 -9 3 -12 2 -9 -5 4 -5 -4 -20 -18
-33 l-25 -23 -6 406 c-3 223 -8 486 -11 585 l-5 178 40 -4 c28 -2 41 1 45 11
8 20 5 21 -77 32 -40 5 -83 12 -96 15 l-23 5 3 229 c2 125 6 232 10 236 13 12
141 -14 150 -31 11 -19 28 -10 28 16 0 10 -7 19 -16 19 -8 0 -46 7 -84 16
l-68 15 -6 72 c-4 40 -7 260 -9 490 l-2 418 58 -6 c60 -7 82 9 30 21 -93 20
-93 20 -91 82 1 50 2 52 5 15 2 -24 7 -43 11 -43 4 -1 26 -5 50 -9 l42 -8 0
93 c0 105 8 96 -92 109 l-48 6 0 -125 c0 -90 3 -125 13 -128 9 -4 13 -86 15
-359 1 -195 3 -414 5 -487 1 -100 -1 -132 -10 -132 -10 0 -13 60 -13 268 -1
147 -5 380 -11 517 -5 138 -9 270 -9 295 0 25 -6 82 -13 128 -14 87 -23 960
-11 1055 10 76 23 54 27 -45 l3 -93 2 93 c1 65 6 92 13 90 8 -3 12 -37 12 -98
l1 -95 3 88 c3 65 8 89 18 93 8 4 46 -4 85 -15 82 -25 84 -25 88 -13 1 5 -11
15 -28 20 -16 6 -30 13 -30 16 0 3 12 1 26 -4 36 -14 54 -12 54 5 0 16 -63 37
-187 62 -67 13 -81 19 -72 29 6 8 9 21 5 29 -4 11 2 15 23 15 40 0 180 -37
208 -55 22 -15 23 -14 23 10 0 14 -6 27 -12 29 -7 3 -62 18 -123 35 -85 24
-98 30 -57 25 50 -6 129 -24 163 -38 12 -5 20 0 27 21 6 15 37 56 70 90 l58
63 -3 142 c-2 79 -6 152 -8 163 -5 22 -88 76 -147 95 l-38 12 0 171 c0 172 5
221 20 212 5 -3 12 0 17 7 9 14 33 79 33 90 0 21 -230 86 -385 108 -90 14
-107 18 -70 19 89 2 217 -18 322 -51 90 -27 130 -32 111 -12 -18 18 -231 78
-340 97 -133 22 -162 36 -80 38 26 0 41 3 34 6 -6 2 -10 9 -7 13 8 13 -50 125
-76 149 l-22 20 26 10 c14 6 31 19 36 30 14 26 14 61 -1 61 -6 0 -27 12 -46
26 l-35 27 29 13 c19 8 23 13 12 13 -16 1 -18 18 -20 164 l-3 162 -9 -162z
m64 -822 c0 -81 -2 -89 -18 -84 -15 3 -18 17 -21 78 -2 62 0 75 16 84 10 6 19
11 21 11 1 0 2 -40 2 -89z m-50 -10 l0 -80 -95 -3 -96 -3 3 75 3 75 40 6 c22
3 64 7 93 8 l52 1 0 -79z m177 64 c5 -14 8 -14 28 -1 30 20 35 8 35 -85 l0
-69 -47 0 c-76 0 -121 11 -126 29 -2 9 -2 44 1 79 l4 62 50 0 c34 0 50 -4 55
-15z m157 -37 c3 -17 6 -57 6 -89 0 -49 -3 -59 -17 -59 -17 -1 -17 -1 0 -11
14 -8 17 -26 17 -115 l0 -105 -37 3 -38 3 -3 113 c-3 111 -2 112 20 113 l23 0
-22 9 c-21 9 -23 16 -23 94 0 90 6 101 46 83 13 -5 25 -22 28 -39z m57 11 l29
-20 0 -195 c0 -203 0 -202 -44 -185 -18 7 -19 21 -20 214 -1 114 1 207 2 207
2 0 17 -9 33 -21z m-601 -59 c0 -78 8 -71 -97 -88 l-53 -9 0 37 c0 72 10 98
43 109 16 6 31 11 33 11 2 0 5 -19 7 -42 l4 -43 1 48 c2 45 3 47 32 47 l30 0
0 -70z m-177 -341 c-5 -4 -18 -10 -30 -14 l-23 -6 0 168 c0 189 3 207 33 220
l22 10 3 -185 c1 -102 -1 -189 -5 -193z m387 177 c0 -51 3 -108 6 -125 5 -24
3 -31 -9 -31 -8 0 -18 -6 -20 -12 -4 -10 -8 -10 -15 1 -9 13 -91 19 -132 9
-13 -2 -15 17 -18 119 -3 140 -13 129 116 132 l72 1 0 -94z m56 -31 c-1 -110
-3 -125 -18 -125 -20 0 -24 35 -20 163 3 75 6 87 21 87 16 0 18 -12 17 -125z
m172 109 c9 -2 12 -36 12 -124 l0 -120 -39 0 c-21 0 -59 3 -85 6 l-46 7 0 123
0 123 73 -5 c39 -3 78 -7 85 -10z m-440 -123 c-1 -66 -5 -122 -8 -124 -3 -3
-34 -8 -70 -11 l-65 -5 55 10 c67 13 95 34 35 26 -22 -3 -52 -9 -67 -12 l-28
-7 0 111 c0 103 1 111 19 111 11 0 27 3 36 6 15 6 16 -2 13 -74 -2 -44 0 -78
5 -75 4 2 7 37 7 78 0 77 3 83 48 84 l24 1 -4 -119z m280 -128 c-10 -2 -26 -2
-35 0 -10 3 -2 5 17 5 19 0 27 -2 18 -5z m29 -180 c-2 -37 -3 -9 -3 62 0 72 1
102 3 68 2 -34 2 -93 0 -130z m281 156 c40 -12 84 -33 99 -46 26 -24 26 -26
20 -124 -3 -54 -4 -99 -2 -99 2 0 10 -2 17 -5 11 -5 13 13 10 95 -3 62 -1 100
6 100 5 0 12 -14 16 -31 6 -30 9 -189 4 -189 -2 0 -32 9 -68 20 -36 11 -81 20
-100 20 -19 0 -42 5 -50 10 -12 8 -11 10 8 10 22 0 22 2 22 115 0 85 -3 115
-12 116 -7 0 -60 7 -118 14 l-105 12 90 2 c66 1 109 -5 163 -20z m-143 -84 c4
-36 4 -85 1 -110 l-7 -45 -67 2 -67 2 60 3 60 4 -3 104 c-5 119 12 147 23 40z
m80 -59 l-7 -106 -36 1 c-31 2 -32 3 -9 6 l27 4 0 103 c0 56 3 106 7 110 19
19 25 -20 18 -118z m215 84 c8 -5 11 -10 5 -10 -5 0 -17 5 -25 10 -8 5 -10 10
-5 10 6 0 17 -5 25 -10z m-997 -97 c-6 -126 -11 -141 -12 -33 -1 73 5 130 14
130 1 0 0 -44 -2 -97z m-43 -15 l-5 -103 -3 89 c-2 79 1 116 10 116 2 0 1 -46
-2 -102z m1100 -34 c0 -74 -4 -113 -10 -109 -6 3 -10 53 -10 114 0 72 -4 111
-12 120 -11 11 -9 11 10 2 21 -11 22 -18 22 -127z m-1133 -36 c-2 -29 -3 -6
-3 52 0 58 1 81 3 53 2 -29 2 -77 0 -105z m-25 45 c-2 -54 -8 -102 -14 -108
-8 -7 -9 -5 -4 8 3 10 6 59 6 108 0 49 3 89 8 89 4 0 6 -44 4 -97z m75 -35
c-2 -24 -4 -5 -4 42 0 47 2 66 4 43 2 -24 2 -62 0 -85z m950 -324 c-3 -3 -12
-4 -19 -1 -8 3 -5 6 6 6 11 1 17 -2 13 -5z m-234 -41 c-7 -2 -13 -14 -13 -24
0 -11 -4 -17 -10 -14 -5 3 -10 15 -10 26 0 13 7 19 23 18 12 0 16 -3 10 -6z
m104 -99 c-3 -3 -12 -4 -19 -1 -8 3 -5 6 6 6 11 1 17 -2 13 -5z m68 -14 c13
-5 14 -9 5 -9 -8 0 -24 4 -35 9 -13 5 -14 9 -5 9 8 0 24 -4 35 -9z m-175 -252
c0 -111 -2 -200 -4 -197 -2 2 -7 78 -10 169 -4 91 -9 180 -12 198 -5 25 -3 32
9 32 14 0 16 -27 17 -202z m-412 -146 c3 -90 -3 -100 -53 -88 -24 6 -25 10
-25 85 0 43 3 81 7 85 4 4 21 6 38 4 l30 -3 3 -83z m389 66 c-3 -8 -6 -5 -6 6
-1 11 2 17 5 13 3 -3 4 -12 1 -19z m9 -493 c-1 -195 -5 -358 -9 -361 -4 -4 -7
145 -7 332 0 299 4 384 16 384 1 0 2 -160 0 -355z m-402 235 c4 -50 4 -95 1
-100 -3 -6 -22 -10 -41 -10 l-34 0 0 93 c0 52 3 97 7 100 3 4 18 7 33 7 27 0
27 -1 34 -90z m363 -112 c-3 -7 -5 -2 -5 12 0 14 2 19 5 13 2 -7 2 -19 0 -25z
m230 -540 c-2 -24 -4 -7 -4 37 0 44 2 63 4 43 2 -21 2 -57 0 -80z m-180 10
c-2 -13 -4 -3 -4 22 0 25 2 35 4 23 2 -13 2 -33 0 -45z m35 -436 c2 -199 0
-362 -4 -362 -7 0 -10 190 -10 500 0 139 3 233 7 228 3 -2 6 -167 7 -366z
m-45 276 c-2 -13 -4 -5 -4 17 -1 22 1 32 4 23 2 -10 2 -28 0 -40z m0 -60 c-3
-8 -6 -5 -6 6 -1 11 2 17 5 13 3 -3 4 -12 1 -19z m0 -90 c-2 -13 -4 -5 -4 17
-1 22 1 32 4 23 2 -10 2 -28 0 -40z m0 -311 c-1 -45 -3 -5 -3 88 0 94 2 130 3
82 2 -48 2 -125 0 -170z m40 -259 c-3 -8 -6 -5 -6 6 -1 11 2 17 5 13 3 -3 4
-12 1 -19z m0 -40 c-3 -8 -6 -5 -6 6 -1 11 2 17 5 13 3 -3 4 -12 1 -19z m20
-260 c-2 -24 -4 -5 -4 42 0 47 2 66 4 43 2 -24 2 -62 0 -85z m-3073 -33 c319
-418 373 -500 407 -615 7 -25 34 -76 59 -115 62 -93 117 -190 102 -181 -7 4
-30 33 -51 64 -21 31 -62 86 -90 122 -28 36 -65 85 -83 109 -18 24 -52 66 -75
93 -49 56 -52 65 -20 70 15 2 22 10 21 24 0 21 -24 57 -168 252 -91 123 -198
287 -168 257 11 -11 41 -47 66 -80z m3083 -277 c-1 -46 -3 -11 -3 77 0 88 2
125 3 83 2 -42 2 -114 0 -160z m-3246 135 c17 -38 55 -121 85 -185 l53 -118
-49 -142 c-53 -157 -135 -357 -152 -373 -7 -7 -8 17 -4 80 12 160 26 526 26
668 0 75 2 137 5 137 2 0 18 -30 36 -67z m342 -312 c37 -47 86 -108 107 -135
l40 -48 -22 -18 c-31 -24 -104 -60 -122 -60 -7 0 -16 7 -19 15 -6 15 30 50 83
82 38 22 38 36 1 28 -26 -6 -32 -2 -59 37 -16 24 -32 53 -36 65 -4 11 -13 27
-21 33 -8 7 -15 23 -15 37 0 13 -7 38 -15 56 -8 18 -10 24 -3 13 7 -10 44 -57
81 -105z m-63 -15 c0 -16 -7 -26 -22 -29 -30 -8 -34 -2 -14 28 21 32 36 32 36
1z m2999 -555 c1 -288 -1 -522 -3 -520 -2 2 -6 249 -8 549 -3 300 -2 534 2
520 5 -14 8 -261 9 -549z m90 -3 c-1 -315 -4 -584 -8 -597 -14 -52 -26 -30
-25 46 l2 78 -7 -72 c-5 -65 -21 -112 -21 -67 0 10 -3 50 -6 87 -4 37 -2 67 2
66 42 -7 43 -5 39 144 -3 158 -3 160 -13 132 -4 -11 -5 -75 -2 -142 4 -91 2
-124 -7 -127 -7 -3 -14 -2 -16 2 -3 4 -6 230 -8 502 -3 392 -1 494 9 493 6 -2
12 2 12 8 0 5 5 7 10 4 6 -3 10 -1 10 4 0 6 7 11 15 11 13 0 15 -70 14 -572z
m-3199 516 c0 -6 -8 -11 -17 -10 -14 1 -17 -6 -15 -29 4 -36 -38 -252 -73
-385 -28 -103 -115 -330 -127 -330 -13 0 -20 90 -14 168 6 61 17 100 56 189
41 93 89 220 154 411 10 29 12 31 24 15 6 -9 12 -22 12 -29z m190 -84 c22 0 8
-19 -22 -29 -17 -6 -32 -10 -33 -9 0 2 -9 19 -19 39 -19 35 -19 37 0 62 l19
25 23 -44 c12 -24 27 -44 32 -44z m475 -213 c108 -106 349 -315 449 -389 50
-37 128 -88 174 -114 45 -26 81 -48 79 -50 -5 -6 -185 60 -282 103 -187 82
-354 243 -536 515 -34 51 -84 118 -110 149 -82 94 -55 76 54 -38 56 -59 134
-138 172 -176z m-612 196 c16 -34 19 -47 10 -50 -14 -5 -17 -51 -5 -69 4 -6
22 -15 40 -19 36 -7 38 -17 22 -95 -6 -25 -14 -119 -19 -209 -9 -148 -12 -167
-35 -200 -43 -63 -170 -214 -195 -230 l-24 -15 16 31 c34 65 58 188 87 439 17
143 35 305 42 362 14 117 26 128 61 55z m-82 -129 c-11 -82 -27 -214 -36 -294
-31 -287 -66 -427 -131 -515 l-36 -50 6 50 c3 28 10 103 16 168 8 94 18 137
45 210 53 140 98 310 131 495 9 51 18 91 20 89 3 -2 -5 -71 -15 -153z m512 63
c38 -51 97 -133 132 -183 35 -49 103 -130 150 -178 47 -48 85 -89 85 -92 0
-14 -202 153 -233 193 -92 119 -232 354 -209 353 4 -1 38 -42 75 -93z m-108
-48 c28 -33 73 -88 102 -122 28 -34 50 -63 48 -65 -5 -5 40 -109 120 -282 96
-207 115 -249 227 -495 130 -287 250 -530 309 -630 46 -78 157 -226 179 -240
31 -19 15 10 -41 76 -118 141 -201 293 -419 769 -137 298 -360 782 -367 794
-3 4 7 0 21 -10 37 -23 105 -115 145 -194 294 -576 536 -943 829 -1262 97
-105 119 -134 105 -139 -15 -5 -15 -6 1 -12 10 -4 29 -4 43 -1 27 7 43 -7 43
-38 0 -14 -8 -18 -35 -18 -29 0 -35 4 -35 21 0 11 -4 17 -10 14 -5 -3 -10 -15
-10 -26 0 -17 -7 -19 -70 -19 -63 0 -70 2 -70 20 0 11 -4 20 -10 20 -5 0 -10
-11 -10 -25 0 -24 -3 -25 -61 -25 -53 0 -60 -2 -55 -17 17 -58 16 -71 -7 -117
l-25 -48 -6 38 c-4 22 -10 60 -12 87 -6 46 -7 47 -41 47 -22 0 -32 4 -27 11 3
6 1 15 -5 19 -8 5 -4 12 14 24 35 23 23 36 -36 36 -37 0 -49 4 -49 15 0 8 7
15 15 15 8 0 15 5 15 10 0 14 -23 13 -43 -2 -15 -12 -15 -19 -2 -83 8 -38 15
-72 15 -75 -1 -14 -26 43 -47 105 -26 77 -26 39 -1 -52 8 -29 12 -53 8 -53 -4
0 -24 39 -44 88 -42 97 -70 138 -36 52 26 -65 43 -120 38 -125 -2 -2 -35 58
-72 133 -38 75 -71 139 -73 141 -1 2 -12 -4 -22 -13 -19 -17 -19 -19 11 -89
41 -96 136 -357 131 -357 -8 0 -91 185 -119 265 -15 44 -35 97 -44 117 l-17
38 -24 -28 c-18 -20 -18 -22 -3 -9 20 17 21 16 42 -30 23 -51 123 -343 117
-343 -8 0 -65 111 -85 168 -34 94 -36 66 -2 -35 32 -95 47 -153 39 -153 -3 0
-29 56 -58 125 -53 126 -76 164 -38 64 44 -118 59 -163 55 -166 -3 -3 -23 32
-113 207 -15 30 -29 57 -30 59 -2 2 -5 2 -8 -1 -3 -3 10 -33 29 -67 39 -68
126 -248 126 -259 0 -9 -47 66 -62 101 -7 15 -17 26 -23 24 -5 -2 -32 43 -60
99 -47 97 -51 102 -69 89 -17 -13 -18 -19 -9 -47 14 -43 179 -448 185 -454 3
-2 47 4 99 15 52 10 137 25 189 32 86 11 122 22 291 89 26 11 77 24 115 31
104 17 111 28 19 29 -98 2 -88 7 23 13 66 3 82 1 77 -10 -3 -7 -8 -19 -11 -27
-7 -18 43 -3 251 74 77 29 202 72 278 97 79 26 137 51 137 58 0 7 18 15 39 19
22 3 53 18 68 32 l28 25 -32 -15 c-18 -9 -48 -16 -68 -16 -33 0 -35 2 -35 35
0 30 3 35 24 35 14 0 28 5 31 10 4 6 -12 10 -40 10 -26 0 -44 -4 -40 -9 3 -5
-25 -12 -62 -15 -38 -4 -83 -8 -100 -11 -26 -3 -33 0 -34 13 -1 15 -2 15 -6 1
-5 -19 -34 -25 -208 -39 -185 -15 -172 -18 -180 37 -4 25 -15 62 -26 82 -10
20 -19 43 -19 51 0 8 -5 22 -10 30 -14 23 0 -60 16 -92 34 -67 11 -63 -71 13
-191 179 -414 469 -607 789 -66 110 -108 185 -255 460 -20 36 -46 84 -60 107
-14 24 -23 47 -21 52 1 5 35 -15 75 -45 55 -41 107 -98 230 -251 195 -243 349
-412 488 -533 78 -69 103 -96 93 -102 -11 -8 -11 -10 0 -15 7 -3 23 -15 34
-27 20 -20 21 -20 14 -1 -6 16 -5 17 5 8 9 -9 9 -15 0 -27 -10 -11 -5 -20 26
-46 l38 -31 -30 7 c-16 4 -48 13 -69 21 -63 21 -52 8 21 -27 37 -18 105 -65
151 -104 142 -121 152 -128 152 -120 0 5 -28 36 -62 69 -35 33 -52 51 -38 40
25 -19 200 -197 200 -203 0 -2 -20 13 -45 34 -25 20 -45 33 -45 29 0 -9 -63
37 -107 78 -18 17 -33 27 -33 23 0 -12 183 -186 196 -186 6 0 17 -6 23 -14 21
-25 -90 22 -132 56 -21 16 -41 28 -43 25 -7 -7 105 -97 121 -97 7 0 15 -4 17
-8 2 -4 93 2 203 15 198 22 275 27 275 19 0 -3 -4 -16 -10 -30 -16 -42 -4 -55
61 -62 64 -7 64 -7 49 -50 -15 -43 -108 -93 -305 -164 -305 -111 -551 -185
-850 -256 -264 -63 -645 -116 -595 -84 11 7 6 10 -22 10 -46 0 -74 -10 -58
-20 7 -4 -14 -10 -46 -14 -33 -4 -77 -9 -99 -13 -36 -6 -38 -7 -15 -14 l25 -7
-27 -1 c-14 -1 -35 -4 -45 -7 -13 -4 -14 -3 -5 3 20 15 -12 37 -42 29 -16 -4
-32 1 -47 14 l-24 20 55 -6 c52 -5 341 26 402 43 l27 8 -45 100 c-25 55 -66
143 -91 195 -25 52 -69 156 -99 230 -29 74 -85 212 -123 305 -67 163 -69 170
-48 173 12 2 29 5 37 8 13 4 13 6 0 14 -11 7 -8 10 13 10 16 0 26 4 22 10 -3
5 18 16 47 25 65 19 65 19 73 -5 8 -25 17 -25 42 -2 10 9 14 14 9 10 -6 -5
-16 -8 -23 -8 -26 0 -6 41 48 98 98 104 105 116 34 58 -76 -62 -104 -72 -265
-101 -52 -9 -102 -19 -111 -21 -13 -3 -15 1 -12 20 5 22 11 25 72 31 36 4 82
11 101 16 36 9 8 8 -135 -6 -50 -5 -50 -5 11 9 90 21 109 34 214 143 l95 98
-35 0 -34 0 -110 237 c-61 130 -112 235 -114 233 -2 -2 40 -97 93 -212 137
-292 130 -273 102 -273 -25 0 -44 26 -75 105 -11 28 -50 113 -87 190 -106 221
-145 314 -145 345 0 35 6 37 33 13 23 -20 16 -2 -11 29 -13 15 -11 22 16 67
l31 49 -35 37 c-19 20 -34 40 -34 44 0 5 -13 11 -29 14 -24 5 -29 12 -33 43
-3 28 1 41 16 55 11 11 25 19 30 18 6 0 34 -27 61 -60z m-50 -88 c-18 -18 -84
-41 -90 -32 -3 5 14 16 37 24 52 19 65 20 53 8z m-157 -45 c8 -18 7 -29 -4
-45 -24 -33 -34 -25 -34 29 0 54 17 61 38 16z m200 -12 c3 -21 -46 -84 -65
-84 -12 0 -33 44 -33 69 0 40 92 54 98 15z m-157 -71 c10 -28 9 -35 -16 -69
-14 -20 -14 -23 0 -38 9 -9 15 -20 13 -26 -4 -12 -92 -119 -98 -120 -3 0 -4
48 -2 107 l3 108 37 32 c45 39 50 40 63 6z m99 -83 c-11 -20 -30 -28 -30 -12
0 11 22 32 32 32 5 0 4 -9 -2 -20z m45 -286 l87 -185 -11 -127 c-7 -70 -14
-129 -16 -131 -3 -2 -51 -16 -107 -31 -57 -16 -136 -38 -176 -50 -41 -12 -76
-20 -78 -17 -4 4 32 517 41 582 4 28 20 56 54 95 26 30 54 66 61 79 l13 25 22
-28 c12 -15 61 -111 110 -212z m595 98 c36 -24 88 -66 115 -92 137 -131 369
-293 530 -370 115 -54 189 -79 320 -105 50 -10 97 -24 106 -32 17 -14 44 -101
35 -110 -2 -2 -12 21 -21 52 -9 32 -18 55 -20 53 -3 -2 4 -33 15 -69 23 -73
24 -83 10 -74 -5 3 -14 24 -20 46 -6 23 -13 39 -15 37 -3 -2 0 -21 6 -42 14
-52 5 -70 -11 -21 -27 84 -32 57 -6 -35 4 -16 -1 -11 -14 13 -24 44 -36 45
-20 2 6 -15 9 -30 6 -32 -2 -3 -7 5 -11 16 -3 12 -15 26 -26 32 -19 9 -19 9
-10 -10 20 -37 11 -41 -21 -8 -18 18 -25 24 -16 12 17 -20 48 -87 48 -102 -1
-4 -9 2 -20 15 l-19 23 -6 -23 c-6 -24 -7 -24 -49 16 -59 55 -106 90 -106 77
0 -5 11 -18 25 -28 60 -42 76 -56 71 -60 -2 -2 -21 6 -43 20 -53 33 -87 44
-53 18 14 -11 40 -28 58 -38 38 -21 43 -37 6 -23 -38 15 -42 12 -14 -11 l25
-20 -25 6 c-68 19 -233 144 -414 314 -115 109 -413 463 -492 586 -21 33 -23
34 76 -33z m262 -121 c132 -51 551 -190 653 -215 55 -14 137 -30 182 -37 l81
-12 14 -91 14 -91 -26 -3 c-47 -7 -245 20 -330 45 -110 31 -242 90 -338 149
-111 69 -329 234 -382 289 l-45 47 52 -26 c28 -14 85 -39 125 -55z m-1136 2
c-3 -32 -13 -157 -21 -278 -9 -121 -20 -229 -25 -241 -4 -12 -21 -24 -37 -27
-15 -4 -79 -22 -142 -41 l-113 -35 6 52 c4 29 10 102 15 164 9 110 10 113 47
159 22 27 68 77 103 113 36 36 87 94 114 128 27 35 51 63 54 63 3 0 2 -26 -1
-57z m-304 -55 c-1 -46 -7 -119 -13 -164 -10 -79 -12 -83 -88 -185 -45 -61
-82 -123 -89 -149 -13 -45 -39 -102 -115 -254 -39 -77 -177 -311 -216 -364
l-19 -26 -48 39 c-95 76 -174 147 -174 156 0 5 21 19 48 30 26 11 79 41 117
66 39 26 87 58 108 72 51 33 211 185 259 244 38 48 38 50 38 138 0 89 1 90 56
202 31 61 64 123 73 137 16 23 42 82 55 123 10 31 11 19 8 -65z m764 -333 c-2
-7 -28 -17 -56 -22 l-52 -11 6 52 c3 28 8 80 12 115 l6 63 44 -93 c25 -51 43
-98 40 -104z m1692 109 c19 -4 22 -10 21 -52 0 -35 -3 -42 -9 -27 -7 17 -9 14
-11 -15 l-2 -35 -8 35 c-7 31 -8 29 -4 -14 4 -69 -15 -34 -22 40 -3 30 -10 57
-16 61 -6 4 -7 -15 -2 -53 4 -32 8 -68 9 -79 1 -11 6 -24 11 -28 6 -5 4 -7 -5
-4 -13 3 -47 123 -49 173 -1 10 33 9 87 -2z m-2489 -188 c-5 -70 -14 -136 -19
-146 -5 -9 -23 -20 -41 -24 -20 -4 -29 -11 -26 -19 3 -8 -20 -24 -64 -44 -38
-17 -69 -29 -69 -26 0 7 66 149 93 200 23 44 129 195 133 190 2 -2 -1 -60 -7
-131z m3408 72 c-2 -13 -4 -3 -4 22 0 25 2 35 4 23 2 -13 2 -33 0 -45z m41 10
l-1 -43 -5 40 -6 40 -6 -40 -7 -40 -2 43 c-1 31 3 42 14 42 11 0 15 -11 13
-42z m59 13 c0 -11 -5 -17 -9 -15 -11 7 -10 34 1 34 6 0 9 -9 8 -19z m-3677
-82 c0 -52 -5 -68 -35 -113 -37 -56 -176 -196 -194 -196 -6 0 -11 8 -12 18 0
9 -5 3 -10 -15 -10 -33 -65 -80 -179 -155 -107 -69 -97 -48 36 84 75 73 139
133 143 133 10 0 159 187 201 253 18 28 37 52 42 52 4 0 8 -27 8 -61z m2690
11 c0 -5 -5 -10 -11 -10 -5 0 -7 5 -4 10 3 6 8 10 11 10 2 0 4 -4 4 -10z
m-174 -75 c8 -58 0 -68 -16 -18 -7 21 -17 44 -23 51 -7 9 -4 12 11 12 17 0 22
-8 28 -45z m32 11 c4 -35 -14 -26 -20 9 -4 16 -1 24 6 22 6 -2 12 -16 14 -31z
m51 12 c0 -16 -2 -18 -6 -8 -3 8 -11 18 -17 22 -7 5 -4 8 7 8 11 0 17 -7 16
-22z m1118 6 c-3 -3 -12 -4 -19 -1 -8 3 -5 6 6 6 11 1 17 -2 13 -5z m6 -21
c-7 -2 -19 -2 -25 0 -7 3 -2 5 12 5 14 0 19 -2 13 -5z m7 -35 c0 -16 -3 -19
-11 -11 -6 6 -8 16 -5 22 11 17 16 13 16 -11z m-10 -42 c0 -2 -9 -6 -20 -9
-11 -3 -20 -1 -20 4 0 5 9 9 20 9 11 0 20 -2 20 -4z m-4564 -90 c13 -22 14
-28 3 -19 -8 6 -25 31 -38 55 -19 36 -19 39 -3 19 11 -14 28 -38 38 -55z m101
-141 c25 -38 67 -91 92 -117 43 -46 44 -48 26 -62 -18 -13 -23 -7 -71 81 -29
51 -71 119 -95 151 -23 31 -32 48 -20 37 12 -10 43 -51 68 -90z m4793 92 c0
-2 -12 -14 -27 -28 l-28 -24 24 28 c23 25 31 32 31 24z m-3560 -11 c0 -6 -171
-29 -176 -23 -3 3 23 9 58 15 71 11 118 14 118 8z m-193 -32 c-3 -3 -12 -4
-19 -1 -8 3 -5 6 6 6 11 1 17 -2 13 -5z m3693 3 c0 -2 -12 -14 -27 -28 l-28
-24 24 28 c23 25 31 32 31 24z m-4016 -23 c9 -3 16 -15 16 -25 0 -13 7 -19 23
-19 18 0 26 -10 41 -52 10 -29 61 -146 112 -260 52 -114 94 -210 94 -213 0 -5
-175 2 -247 11 -27 3 -43 10 -43 19 0 7 4 15 10 17 5 2 6 9 1 17 -7 10 -11 5
-16 -18 -6 -29 -9 -31 -51 -31 -32 0 -44 4 -44 15 0 10 11 15 33 16 31 2 30 2
-7 8 -38 6 -40 8 -59 69 -11 34 -22 60 -24 58 -3 -2 7 -43 21 -89 14 -47 26
-87 26 -89 0 -2 -17 -2 -37 0 -28 3 -45 13 -63 35 -22 28 -23 30 -5 24 19 -7
19 -7 -1 10 -11 10 -30 35 -42 56 l-21 37 21 36 c20 34 22 35 29 15 5 -11 11
-21 13 -21 3 0 1 12 -4 26 -11 27 -8 34 82 184 25 41 57 96 72 123 26 46 38
53 70 41z m141 -15 c-49 -10 -94 -17 -100 -15 -5 2 17 9 50 15 33 7 65 14 70
16 6 2 24 3 40 3 17 0 -10 -9 -60 -19z m2271 -154 c33 -43 35 -49 10 -20 -20
22 -57 67 -82 100 -33 43 -35 49 -10 20 20 -22 57 -67 82 -100z m1888 67 c-9
-16 -25 -39 -36 -53 l-19 -24 12 25 c15 31 49 80 55 80 3 0 -2 -13 -12 -28z
m-3736 -69 c42 -98 39 -122 -14 -123 -21 0 -26 8 -81 147 -5 11 15 20 53 22
17 1 26 -10 42 -46z m2661 2 c0 -5 -4 -3 -9 5 -5 8 -9 22 -9 30 0 16 17 -16
18 -35z m-2831 -98 c41 -103 42 -110 25 -122 -31 -23 -63 -39 -68 -33 -3 3
-30 62 -59 131 -60 139 -60 137 19 134 l40 -2 43 -108z m-820 -66 c56 -47 102
-90 102 -97 0 -7 -20 -34 -44 -61 l-45 -48 -26 30 c-15 17 -56 79 -91 140 -59
102 -62 110 -47 127 13 15 19 16 32 6 9 -7 62 -51 119 -97z m2903 82 c13 -16
12 -17 -3 -4 -10 7 -18 15 -18 17 0 8 8 3 21 -13z m1826 -28 c-7 -14 -16 -25
-20 -25 -8 0 -2 14 16 38 15 19 16 14 4 -13z m-1906 -12 c13 -16 12 -17 -3 -4
-10 7 -18 15 -18 17 0 8 8 3 21 -13z m-1793 -40 c-10 -2 -26 -2 -35 0 -10 3
-2 5 17 5 19 0 27 -2 18 -5z m3261 -272 c47 -83 50 -108 4 -34 -54 86 -95 166
-119 230 -36 96 -28 89 25 -22 26 -55 66 -133 90 -174z m778 212 c-3 -10 -5
-4 -5 12 0 17 2 24 5 18 2 -7 2 -21 0 -30z m-4902 -110 l34 -61 -82 -4 c-45
-3 -86 -1 -91 3 -5 5 9 26 32 49 23 23 44 50 47 61 10 30 22 20 60 -48z m5805
57 c-11 -7 -15 -26 -14 -67 1 -38 -1 -51 -7 -38 -8 20 -8 20 -8 0 -1 -11 -19
-74 -41 -140 -21 -66 -48 -174 -59 -240 -40 -244 -63 -310 -31 -90 10 72 24
154 30 184 5 30 8 56 5 59 -5 5 -5 5 -39 -93 l-25 -70 -2 70 c-2 73 -4 69 -14
-28 l-7 -58 -31 24 c-23 18 -38 43 -55 93 -23 69 -23 62 -2 -55 6 -40 6 -42
-6 -25 -8 10 -26 31 -40 46 -13 15 -30 41 -35 58 -6 17 -14 29 -16 26 -7 -7
27 -95 50 -131 14 -22 10 -20 -17 10 -19 22 -35 43 -36 48 0 4 -6 7 -13 7 -8
0 -19 11 -25 25 -6 14 -15 25 -19 24 -18 -3 -34 2 -29 9 2 4 -3 16 -11 27 -15
20 -15 19 -10 -3 5 -23 5 -23 -13 -7 -11 10 -17 22 -13 28 3 5 2 7 -4 4 -6 -4
-18 -1 -28 7 -15 11 -4 19 96 69 63 32 191 98 284 147 94 49 177 90 185 90 13
0 13 -1 0 -10z m-215 -23 c-58 -32 -135 -68 -135 -62 0 6 152 84 165 84 6 1
-8 -9 -30 -22z m-2945 -24 c0 -5 -14 -49 -30 -99 -47 -140 -83 -177 -50 -50
27 101 50 156 66 156 8 0 14 -3 14 -7z m400 -27 c0 -20 -23 -26 -96 -26 -49 0
-64 3 -64 14 0 15 29 21 118 24 30 2 42 -2 42 -12z m-2077 -3 c-13 -2 -35 -2
-50 0 -16 2 -5 4 22 4 28 0 40 -2 28 -4z m-110 -10 c-7 -2 -19 -2 -25 0 -7 3
-2 5 12 5 14 0 19 -2 13 -5z m1987 -2 c0 -9 -80 -21 -139 -21 -41 0 -31 16 14
23 56 8 125 7 125 -2z m1064 -6 c3 -8 1 -15 -4 -15 -6 0 -10 7 -10 15 0 8 2
15 4 15 2 0 6 -7 10 -15z m-674 -13 c0 -15 -33 -39 -95 -70 -70 -35 -193 -77
-201 -69 -3 3 11 11 32 17 60 20 176 76 214 104 37 27 50 31 50 18z m-944 -23
c-46 -6 -73 -6 -80 1 -7 7 16 10 70 9 l79 -2 -69 -8z m1453 -19 c11 -24 11
-24 -3 -6 -9 11 -16 24 -16 30 0 12 5 7 19 -24z m-1565 5 c-4 -8 -8 -15 -10
-15 -2 0 -4 7 -4 15 0 8 4 15 10 15 5 0 7 -7 4 -15z m262 -96 l-15 -34 4 30
c2 17 8 48 12 70 l7 40 4 -36 c2 -20 -4 -52 -12 -70z m3330 25 c-8 -38 -15
-59 -15 -47 -1 26 19 126 25 121 2 -2 -3 -35 -10 -74z m-5261 57 c-9 -9 -171
-81 -181 -81 -2 0 -4 6 -4 13 0 6 37 26 83 43 86 33 118 41 102 25z m3714 -72
c12 -39 20 -73 17 -76 -7 -8 -44 75 -52 116 -12 58 12 31 35 -40z m-231 36
c-3 -3 -9 2 -12 12 -6 14 -5 15 5 6 7 -7 10 -15 7 -18z m-3898 -25 c12 -22 11
-23 -2 -13 -8 7 -32 12 -53 10 -25 -1 -39 3 -43 12 -3 10 4 12 37 6 30 -5 41
-3 41 6 0 15 3 12 20 -21z m-350 0 c0 -5 -4 -10 -9 -10 -5 0 -32 -15 -60 -34
-53 -36 -68 -33 -28 5 20 20 72 48 90 49 4 0 7 -4 7 -10z m550 -35 c0 -8 -9
-15 -19 -15 -11 0 -26 -7 -35 -15 -8 -8 -22 -15 -30 -15 -9 0 -16 7 -16 15 0
8 8 15 18 15 10 0 27 7 38 15 25 19 44 19 44 0z m2627 -1 c-3 -3 -12 -4 -19
-1 -8 3 -5 6 6 6 11 1 17 -2 13 -5z m-772 -24 l40 -6 -52 -12 c-28 -6 -86 -32
-127 -58 -73 -45 -77 -46 -118 -36 -24 7 -54 13 -68 15 -21 2 -12 10 50 42
137 71 158 76 275 55z m-1650 -12 c9 -8 -120 -22 -140 -14 -8 3 -15 9 -15 14
0 10 145 11 155 0z m5252 -45 c-3 -10 -5 -2 -5 17 0 19 2 27 5 18 2 -10 2 -26
0 -35z m-5429 2 c4 -4 -40 -5 -98 -2 -141 8 -146 10 -65 16 73 6 150 0 163
-14z m202 20 c0 -7 -109 -55 -126 -55 -7 0 -17 8 -23 18 -9 15 -2 18 52 28 76
14 97 16 97 9z m4478 -57 c-8 -5 -2 -6 15 -2 33 8 80 -3 72 -16 -3 -6 1 -7 10
-4 8 4 22 1 30 -6 8 -6 19 -9 24 -5 6 3 30 0 53 -6 24 -7 47 -11 52 -10 22 5
54 -11 94 -49 23 -22 42 -42 42 -44 0 -10 -52 9 -57 21 -5 12 -7 12 -14 2 -6
-10 -11 -6 -18 12 -9 24 -29 39 -52 39 -13 0 13 -53 36 -72 20 -16 19 -17 -7
-14 -16 2 -28 -1 -28 -5 0 -17 -16 -9 -59 27 -23 20 -44 34 -47 31 -3 -3 -1
-28 4 -56 5 -28 6 -51 2 -51 -17 0 -160 161 -166 187 -4 15 -11 34 -17 41 -8
11 -5 11 17 1 19 -9 23 -15 14 -21z m-5221 -3 c179 -30 193 -33 193 -44 0 -5
-30 -3 -67 4 -38 7 -102 19 -143 25 -64 11 -158 37 -138 39 3 1 73 -10 155
-24z m563 -19 c-17 -15 -262 -126 -279 -126 -30 0 -2 20 92 67 128 64 146 71
177 72 21 1 22 -1 10 -13z m2187 8 c-3 -3 -12 -4 -19 -1 -8 3 -5 6 6 6 11 1
17 -2 13 -5z m-2347 -13 c0 -11 -26 -21 -53 -20 -19 1 -18 3 8 14 36 17 45 18
45 6z m2688 -46 c-7 -8 -150 -55 -162 -54 -6 0 25 13 69 29 80 28 103 35 93
25z m-1688 -32 c-1 -5 -16 -15 -35 -24 -33 -16 -35 -15 -35 2 0 17 16 25 53
28 9 0 17 -2 17 -6z m-1167 -31 c29 -17 36 -39 12 -39 -8 0 -12 4 -9 8 6 10
-50 4 -67 -7 -8 -4 -9 -3 -5 4 5 8 -3 10 -26 7 -24 -4 -27 -3 -14 3 19 8 19 9
-2 14 -12 4 -22 13 -22 22 0 14 8 16 53 10 28 -4 64 -14 80 -22z m377 18 c-8
-5 -22 -9 -30 -9 -10 0 -8 3 5 9 27 12 43 12 25 0z m-267 -47 c-7 -2 -19 -2
-25 0 -7 3 -2 5 12 5 14 0 19 -2 13 -5z m224 -12 c44 -5 149 -13 232 -17 103
-5 151 -11 148 -18 -4 -12 -237 -26 -237 -13 0 4 -5 7 -11 7 -5 0 -7 -6 -4
-12 4 -7 -3 -2 -14 12 -11 14 -21 19 -21 13 0 -9 -11 -11 -32 -9 -18 3 -60 7
-94 11 -33 3 -83 15 -110 26 l-49 20 55 -5 c30 -3 92 -10 137 -15z m1133 -13
c0 -11 -28 -10 -35 1 -3 6 4 9 15 8 11 -1 20 -5 20 -9z m-425 -7 c-36 -6 -38
-7 -15 -14 14 -3 36 -7 50 -7 19 0 21 -3 10 -9 -20 -11 -245 -22 -292 -14 -28
4 -38 10 -38 24 0 17 9 19 103 19 69 0 107 -4 116 -12 10 -11 11 -10 6 3 -5
13 3 16 47 16 50 1 51 0 13 -6z m4295 -36 l35 -14 -44 2 c-25 1 -46 7 -49 15
-5 15 13 14 58 -3z m-4947 -2 c-7 -2 -19 -2 -25 0 -7 3 -2 5 12 5 14 0 19 -2
13 -5z m240 -10 c-18 -2 -48 -2 -65 0 -18 2 -4 4 32 4 36 0 50 -2 33 -4z m77
-9 c0 -2 -7 -4 -15 -4 -8 0 -15 4 -15 10 0 5 7 7 15 4 8 -4 15 -8 15 -10z
m2320 -46 c-7 -18 -31 -107 -54 -198 l-42 -165 -52 0 c-249 2 -342 6 -342 15
0 6 9 10 20 10 34 0 143 42 196 75 66 43 167 145 229 233 27 39 52 69 54 67 2
-2 -2 -19 -9 -37z m2365 14 c-3 -3 -11 0 -18 7 -9 10 -8 11 6 5 10 -3 15 -9
12 -12z m-5867 -28 c2 -13 -12 -29 -45 -51 -27 -18 -52 -33 -56 -33 -4 0 12
24 35 54 44 56 61 64 66 30z m3512 -194 l0 -160 -45 0 c-26 0 -45 5 -45 11 0
29 77 309 85 309 3 0 5 -72 5 -160z m-3494 135 c-21 -16 -32 -13 -21 4 3 6 14
11 23 11 15 -1 15 -2 -2 -15z m1792 -392 c-32 -2 -84 -2 -115 0 -32 2 -6 3 57
3 63 0 89 -1 58 -3z m655 -10 c-29 -2 -78 -2 -110 0 -32 2 -8 3 52 3 61 0 87
-1 58 -3z"/>
<path d="M5611 12114 c0 -11 3 -14 6 -6 3 7 2 16 -1 19 -3 4 -6 -2 -5 -13z"/>
<path d="M6013 11943 c9 -2 23 -2 30 0 6 3 -1 5 -18 5 -16 0 -22 -2 -12 -5z"/>
<path d="M6274 11758 c3 -13 6 -65 6 -115 0 -55 4 -93 10 -93 6 0 10 35 10 86
0 47 5 94 10 104 8 15 6 21 -9 30 -29 15 -34 13 -27 -12z"/>
<path d="M6332 11650 c-2 -94 0 -110 13 -110 13 0 15 16 13 107 -4 143 -22
146 -26 3z"/>
<path d="M3258 7953 c7 -3 16 -2 19 1 4 3 -2 6 -13 5 -11 0 -14 -3 -6 -6z"/>
<path d="M6253 7590 c0 -41 2 -58 4 -37 2 20 2 54 0 75 -2 20 -4 3 -4 -38z"/>
<path d="M3560 7540 c0 -5 5 -10 10 -10 6 0 10 5 10 10 0 6 -4 10 -10 10 -5 0
-10 -4 -10 -10z"/>
<path d="M3815 6890 c-43 -44 -75 -84 -71 -88 4 -4 13 0 19 9 7 9 39 38 72 66
36 30 61 59 62 71 1 12 1 22 -1 22 -1 0 -38 -36 -81 -80z"/>
<path d="M3909 6729 l-44 -41 48 38 c26 21 47 40 47 41 0 8 -11 0 -51 -38z"/>
<path d="M3943 6708 l-21 -23 49 -120 c27 -66 49 -128 49 -137 0 -26 10 -22
60 23 38 34 41 40 22 37 -25 -3 -26 -2 -89 161 -16 41 -34 76 -39 78 -6 2 -19
-7 -31 -19z"/>
<path d="M3801 6612 l-44 -38 37 -91 c20 -50 36 -101 36 -115 0 -13 -14 -43
-32 -67 l-31 -43 -23 54 c-13 29 -24 60 -24 68 -1 8 -9 32 -18 53 l-17 39 -28
-22 c-15 -12 -27 -26 -27 -32 0 -5 16 -46 36 -91 20 -45 43 -97 50 -115 l14
-32 55 61 c60 67 70 91 62 147 l-5 37 20 -45 c40 -92 37 -100 -65 -183 -32
-26 -53 -47 -48 -47 6 0 38 24 72 53 34 28 81 68 105 87 24 19 44 40 44 47 0
13 -93 251 -113 290 l-12 23 -44 -38z m-12 -72 c0 -10 -3 -8 -9 5 -12 27 -12
43 0 25 5 -8 9 -22 9 -30z"/>
<path d="M3620 6479 c-22 -18 -22 -19 -3 -10 12 6 25 16 28 21 9 15 3 12 -25
-11z"/>
<path d="M4810 6336 c0 -2 8 -10 18 -17 15 -13 16 -12 3 4 -13 16 -21 21 -21
13z"/>
<path d="M4080 6234 c0 -6 7 -19 16 -30 14 -18 14 -18 3 6 -14 31 -19 36 -19
24z"/>
<path d="M4928 6172 l33 -41 -33 -4 -33 -4 35 -1 c19 0 53 3 75 7 37 8 38 9 9
10 -19 1 -40 11 -55 27 -43 46 -66 51 -31 6z"/>
<path d="M3951 6128 c22 -56 37 -79 24 -39 -12 39 -35 91 -40 91 -3 0 5 -24
16 -52z"/>
<path d="M4865 6165 c50 -18 55 -18 31 0 -11 8 -31 15 -45 15 -22 -1 -19 -3
14 -15z"/>
<path d="M3844 6128 l-19 -23 23 19 c21 18 27 26 19 26 -2 0 -12 -10 -23 -22z"/>
<path d="M3900 6135 c0 -5 5 -17 10 -25 5 -8 10 -10 10 -5 0 6 -5 17 -10 25
-5 8 -10 11 -10 5z"/>
<path d="M4840 6126 c0 -2 11 -6 25 -8 14 -3 25 -1 25 3 0 5 -11 9 -25 9 -14
0 -25 -2 -25 -4z"/>
<path d="M4615 5719 c-94 -23 -110 -28 -103 -34 7 -7 141 22 180 39 45 19 19
18 -77 -5z"/>
<path d="M4220 5590 c-13 -8 -13 -10 2 -10 9 0 20 5 23 10 8 13 -5 13 -25 0z"/>
<path d="M4133 5563 c9 -2 23 -2 30 0 6 3 -1 5 -18 5 -16 0 -22 -2 -12 -5z"/>
<path d="M4975 6740 c10 -11 20 -20 23 -20 3 0 -3 9 -13 20 -10 11 -20 20 -23
20 -3 0 3 -9 13 -20z"/>
<path d="M4770 6645 c15 -18 76 -52 66 -37 -3 6 -23 20 -43 32 -26 15 -33 17
-23 5z"/>
<path d="M4940 6641 c0 -5 7 -15 17 -22 15 -13 15 -12 4 9 -12 23 -21 28 -21
13z"/>
<path d="M5192 7000 c0 -14 2 -19 5 -12 2 6 2 18 0 25 -3 6 -5 1 -5 -13z"/>
<path d="M5207 6925 c3 -27 7 -52 9 -54 7 -8 2 54 -6 79 -6 17 -7 9 -3 -25z"/>
<path d="M2837 7196 c-4 -27 -6 -65 -6 -85 1 -20 6 -2 10 39 10 84 6 122 -4
46z"/>
<path d="M2347 6437 c-9 -23 -30 -207 -24 -213 2 -3 8 26 12 63 3 37 11 87 17
111 10 41 7 69 -5 39z"/>
<path d="M2313 6175 c0 -22 2 -30 4 -17 2 12 2 30 0 40 -3 9 -5 -1 -4 -23z"/>
<path d="M5301 7004 c0 -11 3 -14 6 -6 3 7 2 16 -1 19 -3 4 -6 -2 -5 -13z"/>
<path d="M2426 6125 c4 -11 14 -48 23 -82 13 -51 20 -63 36 -62 11 0 14 3 8 6
-7 2 -13 12 -13 21 -1 10 -14 44 -31 77 -16 33 -26 51 -23 40z"/>
<path d="M2622 6060 c0 -14 2 -19 5 -12 2 6 2 18 0 25 -3 6 -5 1 -5 -13z"/>
<path d="M2720 6066 c0 -11 30 -66 36 -66 2 0 -3 15 -12 33 -19 36 -24 44 -24
33z"/>
<path d="M2848 5993 c6 -2 18 -2 25 0 6 3 1 5 -13 5 -14 0 -19 -2 -12 -5z"/>
<path d="M2075 6240 c9 -16 18 -30 21 -30 2 0 -2 14 -11 30 -9 17 -18 30 -21
30 -2 0 2 -13 11 -30z"/>
<path d="M7821 5804 c0 -11 3 -14 6 -6 3 7 2 16 -1 19 -3 4 -6 -2 -5 -13z"/>
<path d="M7701 5765 c0 -11 4 -27 9 -35 9 -13 10 -13 9 0 0 8 -4 24 -9 35 l-9
20 0 -20z"/>
<path d="M7836 5720 c4 -19 11 -44 15 -55 6 -14 7 -9 3 15 -4 19 -11 44 -15
55 -6 14 -7 9 -3 -15z"/>
<path d="M7751 5724 c0 -11 3 -14 6 -6 3 7 2 16 -1 19 -3 4 -6 -2 -5 -13z"/>
<path d="M7922 5645 c0 -16 2 -22 5 -12 2 9 2 23 0 30 -3 6 -5 -1 -5 -18z"/>
<path d="M4350 5750 c-72 -38 -51 -38 31 0 35 16 55 29 44 29 -11 0 -45 -13
-75 -29z"/>
<path d="M6010 12566 c0 -2 8 -10 18 -17 15 -13 16 -12 3 4 -13 16 -21 21 -21
13z"/>
<path d="M6160 10770 c0 -48 -3 -102 -6 -119 -6 -26 -3 -33 12 -37 18 -5 19
-21 23 -297 1 -161 5 -294 7 -296 2 -2 4 129 4 292 l0 296 50 -6 c64 -7 66 10
5 27 -25 7 -50 21 -56 31 -11 21 -8 22 41 10 l36 -8 -4 64 c-3 41 0 68 8 78
14 17 17 15 -67 38 l-53 15 0 -88z"/>
<path d="M6154 10330 c0 -135 2 -190 3 -122 2 67 2 177 0 245 -1 67 -3 12 -3
-123z"/>
<path d="M6200 8496 l0 -203 46 -7 c26 -3 58 -6 72 -6 l25 0 -8 203 c-5 133
-11 205 -19 209 -6 4 -35 8 -63 8 l-53 0 0 -204z"/>
<path d="M6352 8390 c0 -47 3 -94 8 -105 11 -26 12 82 1 145 -7 39 -9 34 -9
-40z"/>
<path d="M2110 8104 c-19 -8 -50 -27 -69 -41 l-34 -27 -46 18 c-120 47 -149
55 -191 56 l-45 0 111 -54 c103 -50 148 -86 107 -86 -16 0 -16 -1 -1 -16 12
-12 26 -14 62 -9 25 4 46 11 46 16 0 5 -4 9 -9 9 -5 0 -11 6 -14 14 -6 16 112
101 156 112 15 3 27 10 27 15 0 14 -61 10 -100 -7z"/>
<path d="M2345 8041 c-18 -7 -16 -9 12 -15 17 -4 37 -14 44 -22 10 -13 14 -12
30 2 17 16 22 16 59 1 43 -17 54 -7 17 17 -13 9 -42 15 -67 14 -25 -1 -52 1
-60 4 -8 4 -24 3 -35 -1z"/>
<path d="M7212 7800 c0 -14 2 -19 5 -12 2 6 2 18 0 25 -3 6 -5 1 -5 -13z"/>
<path d="M7215 7640 c-4 -17 -5 -34 -2 -36 2 -3 7 10 11 27 3 18 4 34 2 36 -2
3 -7 -10 -11 -27z"/>
<path d="M7196 7564 c-4 -14 -5 -28 -3 -31 3 -2 8 8 11 23 4 14 5 28 3 31 -3
2 -8 -8 -11 -23z"/>
<path d="M6490 7505 c0 -15 21 -35 37 -35 7 0 13 9 13 20 0 11 -4 20 -10 20
-5 0 -7 -7 -4 -15 8 -20 -6 -19 -22 3 -7 9 -14 12 -14 7z"/>
<path d="M6512 7420 c0 -8 4 -26 8 -40 6 -20 8 -21 8 -5 0 11 -3 29 -8 40 -5
12 -8 14 -8 5z"/>
<path d="M6424 7399 c-3 -6 -2 -15 3 -20 5 -5 9 -1 10 11 2 22 -2 25 -13 9z"/>
<path d="M6464 7307 c8 -50 -1 -87 -15 -65 -7 10 -9 9 -9 -4 0 -32 37 -16 40
17 5 46 -1 95 -11 95 -8 0 -9 -14 -5 -43z"/>
<path d="M6435 7177 c-3 -9 -7 -24 -10 -33 -6 -20 15 -14 29 9 8 12 7 20 -1
28 -10 10 -14 9 -18 -4z"/>
<path d="M5157 7156 c-4 -10 -1 -13 8 -9 8 3 12 9 9 14 -7 12 -11 11 -17 -5z"/>
<path d="M5150 7116 c0 -2 7 -7 16 -10 8 -3 12 -2 9 4 -6 10 -25 14 -25 6z"/>
<path d="M5260 7086 c0 -9 5 -16 10 -16 6 0 10 4 10 9 0 6 -4 13 -10 16 -5 3
-10 -1 -10 -9z"/>
<path d="M2491 6944 c0 -11 3 -14 6 -6 3 7 2 16 -1 19 -3 4 -6 -2 -5 -13z"/>
<path d="M6426 6924 c-8 -20 -8 -24 2 -24 4 0 8 9 9 20 2 24 -3 26 -11 4z"/>
<path d="M6526 6931 c-4 -5 -3 -16 0 -25 5 -13 2 -15 -12 -10 -16 6 -15 3 5
-19 22 -24 25 -25 37 -10 10 15 9 20 -7 31 -20 14 -27 38 -7 26 7 -4 8 -3 4 4
-9 14 -13 15 -20 3z m24 -51 c0 -5 -2 -10 -4 -10 -3 0 -8 5 -11 10 -3 6 -1 10
4 10 6 0 11 -4 11 -10z"/>
<path d="M2471 6866 c-7 -32 -11 -60 -8 -62 7 -7 30 93 25 107 -2 7 -10 -14
-17 -45z"/>
<path d="M6425 6879 c-9 -14 -2 -20 14 -10 8 6 9 11 3 15 -6 3 -14 1 -17 -5z"/>
<path d="M2452 6770 c0 -14 2 -19 5 -12 2 6 2 18 0 25 -3 6 -5 1 -5 -13z"/>
<path d="M1810 6751 c0 -6 4 -13 10 -16 6 -3 7 1 4 9 -7 18 -14 21 -14 7z"/>
<path d="M6796 6513 c-6 -14 -5 -15 5 -6 7 7 10 15 7 18 -3 3 -9 -2 -12 -12z"/>
<path d="M6686 6393 c-6 -14 -5 -15 5 -6 7 7 10 15 7 18 -3 3 -9 -2 -12 -12z"/>
<path d="M1898 5866 c-36 -30 -69 -60 -73 -65 -12 -20 -26 -11 -20 12 6 17 4
19 -5 11 -7 -7 -9 -24 -5 -47 5 -27 16 -41 42 -57 20 -11 38 -18 41 -15 3 3 5
25 3 50 -3 51 8 76 57 128 20 20 34 37 31 37 -3 0 -35 -25 -71 -54z"/>
<path d="M1882 5678 c3 -7 18 -15 34 -19 l29 -8 -24 19 c-26 22 -45 26 -39 8z"/>
<path d="M2007 5629 c7 -7 15 -10 18 -7 3 3 -2 9 -12 12 -14 6 -15 5 -6 -5z"/>
<path d="M2068 5603 c7 -3 16 -2 19 1 4 3 -2 6 -13 5 -11 0 -14 -3 -6 -6z"/>
<path d="M2108 5593 c7 -3 16 -2 19 1 4 3 -2 6 -13 5 -11 0 -14 -3 -6 -6z"/>
<path d="M2148 5583 c6 -2 18 -2 25 0 6 3 1 5 -13 5 -14 0 -19 -2 -12 -5z"/>
<path d="M8304 5568 l-19 -23 23 19 c21 18 27 26 19 26 -2 0 -12 -10 -23 -22z"/>
<path d="M2198 5573 c7 -3 16 -2 19 1 4 3 -2 6 -13 5 -11 0 -14 -3 -6 -6z"/>
<path d="M8602 5143 c70 -2 187 -2 260 0 73 1 16 3 -127 3 -143 0 -203 -2
-133 -3z"/>
<path d="M8058 5103 c7 -3 16 -2 19 1 4 3 -2 6 -13 5 -11 0 -14 -3 -6 -6z"/>
<path d="M8188 5103 c18 -2 45 -2 60 0 15 2 0 4 -33 4 -33 0 -45 -2 -27 -4z"/>
<path d="M8593 5103 c108 -2 286 -2 395 0 108 1 19 2 -198 2 -217 0 -306 -1
-197 -2z"/>
<path d="M6213 4993 c208 -2 546 -2 750 0 205 1 35 2 -378 2 -412 0 -580 -1
-372 -2z"/>
<path d="M8328 4983 c134 -2 350 -2 480 0 130 1 21 2 -243 2 -264 0 -371 -1
-237 -2z"/>
<path d="M6041 4916 c2 -2 36 -6 74 -9 44 -4 63 -3 50 3 -19 8 -133 14 -124 6z"/>
<path d="M3479 4886 c-4 -3 -675 -13 -1159 -18 -127 -1 -174 -4 -135 -8 l60
-7 -85 -3 -85 -3 70 -7 c39 -4 284 -13 545 -19 261 -6 495 -13 520 -14 25 -2
-216 -5 -535 -7 -319 -1 -713 -6 -875 -9 l-295 -6 180 -10 c242 -12 3498 -10
3545 3 30 8 20 10 -60 11 -863 10 -1913 36 -2040 51 -56 6 -48 7 65 8 1028 12
1853 26 1865 33 8 5 -330 9 -781 9 -438 0 -798 -2 -800 -4z"/>
<path d="M5615 4789 c-44 -17 -129 -45 -190 -64 -165 -51 -215 -69 -215 -77 0
-13 59 -9 88 6 26 13 217 85 350 132 35 12 60 24 55 27 -4 3 -44 -8 -88 -24z"/>
<path d="M5638 4765 c-53 -24 -122 -53 -155 -64 -145 -49 -626 -234 -653 -251
-8 -5 -11 -12 -8 -16 14 -13 386 17 541 45 86 15 157 24 157 19 0 -4 -1 -8 -3
-8 -11 0 -311 -61 -317 -65 -3 -2 -110 -18 -236 -34 -126 -17 -308 -43 -404
-58 -160 -26 -171 -29 -125 -35 28 -3 181 -7 340 -9 225 -2 266 -4 185 -9 -58
-4 -147 -8 -199 -9 -52 0 -92 -3 -90 -6 10 -9 489 -35 651 -35 100 0 169 -4
173 -10 4 -7 -344 -10 -1037 -11 -574 -1 -1090 -5 -1148 -9 -58 -3 815 -7
1940 -7 1125 0 1982 4 1905 8 -77 4 -480 9 -895 11 -659 3 -844 11 -420 18 74
1 164 6 200 10 l65 7 -80 2 c-123 4 -148 19 -35 21 52 1 118 5 145 10 49 7 48
7 -30 10 l-80 3 78 10 c71 9 77 12 77 34 0 19 -4 23 -22 19 -13 -3 -52 -7 -88
-11 -36 -3 -85 -8 -110 -10 -35 -4 -26 0 40 20 47 14 108 29 135 34 l50 9 -70
2 -70 3 56 7 c64 8 79 15 79 36 0 17 -4 17 -110 -1 -151 -25 -157 -25 -60 0
52 13 105 24 118 25 13 0 20 4 17 10 -3 6 0 10 8 10 8 0 21 10 29 21 11 17 28
23 78 28 l65 7 -65 7 c-53 6 -82 3 -161 -17 -98 -25 -248 -51 -254 -44 -2 2
55 17 128 33 l132 30 -70 7 c-57 6 -98 2 -220 -22 -82 -17 -154 -30 -159 -30
-35 0 36 19 285 75 259 60 285 64 296 49 15 -20 48 -16 201 25 59 16 126 34
150 40 49 14 55 36 12 46 -16 4 -30 10 -30 15 0 5 -12 3 -27 -5 -16 -7 -55
-15 -88 -18 -58 -5 -50 0 29 17 15 4 26 9 23 12 -2 3 -47 -4 -98 -16 -142 -31
-287 -52 -300 -44 -8 5 -9 3 -4 -6 6 -10 2 -11 -17 -7 -14 4 -63 0 -109 -8
-46 -8 -165 -24 -264 -35 -165 -19 -364 -55 -441 -80 -17 -6 -37 -10 -45 -9
-26 1 84 40 170 60 80 19 426 148 417 156 -2 2 -50 -10 -107 -26 -57 -17 -105
-29 -106 -27 -2 2 32 15 74 31 43 15 94 33 113 40 l35 14 -45 0 c-31 -1 -74
-14 -142 -44z m-241 -191 c-3 -3 -12 -4 -19 -1 -8 3 -5 6 6 6 11 1 17 -2 13
-5z m-44 -11 c-7 -2 -19 -2 -25 0 -7 3 -2 5 12 5 14 0 19 -2 13 -5z m644 -9
c-3 -3 -12 -4 -19 -1 -8 3 -5 6 6 6 11 1 17 -2 13 -5z m-360 -50 c-3 -3 -12
-4 -19 -1 -8 3 -5 6 6 6 11 1 17 -2 13 -5z m170 -20 c-3 -3 -12 -4 -19 -1 -8
3 -5 6 6 6 11 1 17 -2 13 -5z m100 -70 c-3 -3 -12 -4 -19 -1 -8 3 -5 6 6 6 11
1 17 -2 13 -5z m-40 -10 c-3 -3 -12 -4 -19 -1 -8 3 -5 6 6 6 11 1 17 -2 13 -5z
m36 -81 c-7 -2 -19 -2 -25 0 -7 3 -2 5 12 5 14 0 19 -2 13 -5z m-60 -10 c-7
-2 -19 -2 -25 0 -7 3 -2 5 12 5 14 0 19 -2 13 -5z"/>
<path d="M6273 4783 c-29 -2 -53 -8 -53 -14 0 -13 68 -10 115 6 43 14 37 15
-62 8z"/>
<path d="M6759 4702 l-16 -37 -10 35 c-9 34 -10 32 -22 -45 -17 -110 -18 -113
-49 -118 l-27 -4 26 -2 26 -1 -16 -82 -17 -83 -144 -16 -145 -15 60 -9 c78
-12 900 -13 1030 -1 212 18 -62 48 -457 50 -178 1 -278 5 -278 11 0 9 9 53 25
123 5 22 7 22 192 22 102 0 184 2 182 4 -2 2 -83 5 -179 7 -96 2 -178 4 -181
6 -3 1 2 33 12 70 29 111 22 164 -12 85z"/>
<path d="M3005 4678 c-396 -4 -760 -11 -810 -16 l-90 -8 125 -7 c178 -10 1244
-28 1511 -25 200 2 217 3 159 13 -59 10 -42 12 195 19 143 5 251 12 240 16
-33 12 -563 15 -1330 8z"/>
<path d="M3315 4590 c-145 -6 -143 -6 70 -7 121 0 290 3 375 7 154 6 154 6
-70 6 -124 0 -292 -3 -375 -6z"/>
<path d="M6235 4590 c-3 -5 1 -10 9 -10 8 0 18 5 21 10 3 6 -1 10 -9 10 -8 0
-18 -4 -21 -10z"/>
<path d="M6115 4580 c-27 -7 -28 -8 -5 -8 14 0 45 3 70 7 l45 8 -40 1 c-22 0
-53 -4 -70 -8z"/>
<path d="M2818 4573 c12 -2 32 -2 45 0 12 2 2 4 -23 4 -25 0 -35 -2 -22 -4z"/>
<path d="M4728 4543 c7 -3 16 -2 19 1 4 3 -2 6 -13 5 -11 0 -14 -3 -6 -6z"/>
<path d="M7208 4533 c34 -2 88 -2 120 0 31 2 3 3 -63 3 -66 0 -92 -1 -57 -3z"/>
<path d="M4665 4393 c-16 -2 -77 -13 -135 -25 -93 -19 -155 -22 -545 -28
l-440 -6 447 -2 c444 -2 449 -2 580 24 73 14 137 30 143 35 9 9 6 9 -50 2z"/>
<path d="M5223 4133 c37 -2 96 -2 130 0 34 2 4 3 -68 3 -71 0 -99 -1 -62 -3z"/>
<path d="M5473 4133 c9 -2 25 -2 35 0 9 3 1 5 -18 5 -19 0 -27 -2 -17 -5z"/>
<path d="M6190 4069 c405 -10 1829 -9 1805 1 -11 5 -483 8 -1050 7 -657 0
-930 -3 -755 -8z"/>
<path d="M5727 3943 c105 -2 281 -2 390 0 109 1 23 2 -192 2 -214 0 -304 -1
-198 -2z"/>
<path d="M6358 3943 c12 -2 30 -2 40 0 9 3 -1 5 -23 4 -22 0 -30 -2 -17 -4z"/>
</g>
</svg>
